# xmcd
#
# Track frame offsets: 
#        150
#        14397
#        27267
#        40015
#        52725
#        68475
#        82920
#        89367
#        103160
#        118410
#        129647
#        139572
#        150597
#        160377
#        175080
#        189085
#        199580
#
# Disc length: 2897 seconds
#
# Revision: 5
# Processed by: cddbd v1.5.2PL0 Copyright (c) Steve Scherf et al.
# Submitted via: ExactAudioCopy v0.99pb3
#
DISCID=d00b4f11
DTITLE=Eric Clapton - Le Meilleur D'Eric Clapton and Friends
DYEAR=1996
DGENRE=Blues
TTITLE0=Draggin' My Tail (Eric Clapton and Jimmy Page)
TTITLE1=Man Of The World (Fleetwood Mac)
TTITLE2=Someday Baby (Cyril Davies and The All Stars)
TTITLE3=Freight Loader (Eric Clapton and Jimmy Page)
TTITLE4=Water On My Fire (Albert Lee)
TTITLE5=So Much To Say (Rod Stewart)
TTITLE6=Choker (Eric Clapton and Jimmy Page)
TTITLE7=I Tried (Savoy Brown Blues Band)
TTITLE8=Howlin' For My Darling (Stuff Smith)
TTITLE9=Snake Drive (Eric Clapton)
TTITLE10=I'm Your Witch Doctor (John Mayall and The Bluesbreakers)
TTITLE11=Miles Road (Eric Clapton and Jimmy Page)
TTITLE12=Tribute To Elmore (Eric Clapton)
TTITLE13=Dealing With The Devil (Dharma Blues Band)
TTITLE14=Ain't Gonna Cry No More (T.S. McPhee)
TTITLE15=West Coast Idea (Eric Clapton)
TTITLE16=Telephone Blues (John Mayall and The Bluesbreakers)
EXTD=
EXTT0=
EXTT1=
EXTT2=
EXTT3=
EXTT4=
EXTT5=
EXTT6=
EXTT7=
EXTT8=
EXTT9=
EXTT10=
EXTT11=
EXTT12=
EXTT13=
EXTT14=
EXTT15=
EXTT16=
PLAYORDER=
